<svg width="50" height="50" viewBox="0 0 50 50" fill="none" xmlns="http://www.w3.org/2000/svg">
    <g id = "css">
        <path d="M15.0671 18.6184L14.5701 13.4286L36.1245 13.4348L36.618 8.42738L8.38377 8.42125L9.87964 23.7177H29.436L28.738 30.2604L22.5017 31.7957L16.1692 30.2497L15.7669 26.2199H10.1754L10.882 34.1845L22.5 36.9533L34.0268 34.1983L35.6207 18.6214H15.0671V18.6184ZM0 0H45L40.9078 41.1777L22.4519 45.8312L4.10076 41.1762L0 0Z" fill="#00C4F0"/>
    </g>
    <g id = "react">
        <path d="M54 22.4465C54 19.2393 50.3014 16.2612 44.137 14.1994L43.0274 13.8557V13.3976C44.3836 7.0977 43.3973 2.40143 40.3151 0.683287C37.2329 -1.03486 32.6712 0.568744 27.7397 4.57775L27 5.26501L26.7534 5.03593H26.5068C21.4521 0.683288 16.5205 -0.805773 13.4384 0.797831C10.3562 2.40143 9.49315 6.86862 10.726 12.7103C10.8557 13.082 10.9385 13.4663 10.9726 13.8557L9.61644 14.3139C3.57534 16.2612 0 19.2393 0 22.4465C0 25.6537 3.94521 28.8609 10.1096 30.9227L10.9726 31.1518C10.8203 31.5573 10.7371 31.9824 10.726 32.4117C9.49315 38.1389 10.6027 42.4915 13.4384 44.0951C16.274 45.6987 21.4521 44.2097 26.3836 40.2007L27.1233 39.628L28.1096 40.5443C31.5616 43.2933 35.0137 44.7824 37.726 44.7824C38.6828 44.8027 39.6252 44.5639 40.4384 44.0951C43.5205 42.4915 44.6301 37.7953 43.274 31.839V31.6099C43.2207 31.4215 43.1795 31.2302 43.1507 31.0372H43.5205C50.0548 28.8609 54 25.7682 54 22.4465ZM50.4247 22.4465C50.4247 23.821 47.7123 26.2264 42.411 27.83H42.1644C41.5181 25.9875 40.7354 24.1887 39.8219 22.4465C40.6849 20.6138 41.4247 18.7811 42.0411 17.063L43.0274 17.292C47.9589 18.8956 50.4247 21.072 50.4247 22.4465ZM30.4521 38.0243L29.4658 37.3371C30.8774 35.8839 32.1948 34.3539 33.411 32.7554L39.6986 31.839C39.8219 32.0681 39.8219 32.2972 39.9452 32.4117C40.3845 34.4865 40.4677 36.6127 40.1918 38.7116C40.0185 39.7154 39.4994 40.6399 38.7123 41.3461C37.4794 42.0334 34.1507 41.117 30.4521 38.0243ZM28.8493 32.9845L27.1233 35.0462L25.1507 32.9845H28.8493ZM11.9589 16.9484C12.5786 18.8369 13.362 20.6756 14.3014 22.4465C13.3612 24.2565 12.5779 26.1333 11.9589 28.0591L11.2192 27.83C9.06024 27.1969 7.05155 26.1861 5.30137 24.8519C4.84818 24.5858 4.46031 24.2342 4.16294 23.8198C3.86558 23.4054 3.66538 22.9375 3.57534 22.4465C3.57534 21.072 6.0411 18.8956 10.726 17.4066L11.9589 16.9484ZM25.1507 11.9085L27 9.96128L28.8493 11.9085H25.1507ZM38.7123 3.54687C40.0685 4.23412 40.8082 7.67042 39.6986 12.7103C39.7043 12.7724 39.6963 12.8348 39.6751 12.8939C39.6539 12.953 39.62 13.0075 39.5753 13.0539L33.411 12.1376C32.1948 10.539 30.8774 9.0091 29.4658 7.55588L30.2055 6.98316C34.1507 3.77595 37.3562 2.85961 38.7123 3.54687ZM18.1233 15.6884L17.137 17.1775L16.274 18.6666C15.9041 17.8648 15.6575 17.063 15.2877 16.1466L18.1233 15.6884ZM15.2877 28.7464C15.6575 27.9446 15.9041 27.1427 16.274 26.2264L17.137 27.7155L18.1233 29.2045L15.2877 28.7464ZM35.8767 22.4465C35.2493 23.7023 34.5497 24.9259 33.7808 26.1119C33.0411 27.3718 32.1781 28.5173 31.4384 29.6627H22.5616C21.6986 28.4027 20.8356 27.2573 20.2192 26.1119C19.4442 24.9291 18.7444 23.7052 18.1233 22.4465C18.7215 21.1774 19.4221 19.9521 20.2192 18.7811C20.9275 17.5944 21.7097 16.447 22.5616 15.3448C25.5154 15.1159 28.4846 15.1159 31.4384 15.3448C32.3014 16.4902 33.0411 17.6357 33.7808 18.7811C34.5779 19.9521 35.2785 21.1774 35.8767 22.4465ZM36.863 17.1775L35.8767 15.6884L38.7123 16.2612C38.4378 17.0813 38.1084 17.8846 37.726 18.6666L36.863 17.1775ZM35.8767 29.2045L36.863 27.7155L37.726 26.1119L38.8356 28.7464L35.8767 29.2045ZM24.411 7.44133H24.5342L20.589 12.0231L14.4247 12.9394C14.3014 12.5958 14.3014 12.3667 14.1781 12.0231C13.1918 7.32679 13.9315 4.11958 15.1644 3.54687C15.4917 3.34713 15.8864 3.26564 16.274 3.31778C18 3.31778 20.9589 4.46321 24.2877 7.21225L24.411 7.44133ZM14.1781 32.9845C14.2006 32.6308 14.2838 32.2828 14.4247 31.9536L20.7123 32.7554C21.8976 34.3753 23.2167 35.9071 24.6575 37.3371L24.411 37.5662L24.1644 37.7953C22.4835 39.2418 20.5153 40.3701 18.3699 41.117C17.8992 41.3461 17.3836 41.4844 16.8539 41.5238C16.3243 41.5632 15.7916 41.5027 15.2877 41.3461C13.9315 40.6588 13.1918 37.5662 14.1781 32.9845Z" fill="#00C4F0"/>
        <path d="M27.0001 17.4066C25.9223 17.3838 24.8617 17.6599 23.9535 18.1997C23.0454 18.7395 22.3309 19.5184 21.9014 20.4371C21.4718 21.3558 21.3467 22.3725 21.5418 23.3576C21.737 24.3427 22.2437 25.2514 22.9972 25.9677C23.7507 26.6841 24.7169 27.1756 25.7724 27.3795C26.8279 27.5834 27.9249 27.4905 28.9233 27.1127C29.9217 26.7348 30.7763 26.0891 31.378 25.258C31.9797 24.4269 32.3012 23.4481 32.3015 22.4465C32.3019 21.1294 31.7473 19.8646 30.7565 18.9226C29.7657 17.9807 28.4174 17.4365 27.0001 17.4066Z" fill="#00C4F0"/>
    </g>
    <g id = "styledComp">
        <path d="M41.3455 0L40.9851 1.71057C40.4277 4.95235 40.6295 5.87982 42.1576 7.08291L43.6329 8.19413L42.1048 14.3977C41.1917 18.0988 40.0721 21.2006 39.3609 22.22C38.7506 23.0993 38.0394 24.3943 37.8856 25.0899C37.631 25.9211 36.766 26.7567 35.4445 27.4961C34.2768 28.0998 31.9846 29.7185 30.3604 31.0178C29.063 32.0809 28.1692 32.7328 27.6838 33.0128L26.098 34.1546C25.5887 34.8983 25.3003 35.4977 25.1898 35.9527C25.0793 36.4208 25.1418 36.7314 25.3051 36.9589C25.4637 37.1777 25.7376 37.3308 26.1124 37.427C26.5561 37.5217 27.0129 37.5556 27.4676 37.5276C28.4962 37.4637 29.5144 37.2994 30.5046 37.0377C30.8409 36.9545 31.1052 36.8758 31.3359 36.8058C31.6915 36.4077 32.5132 35.6552 33.9692 34.3471C37.8328 30.8778 39.308 28.9791 37.7847 29.491C37.2225 29.6748 37.4772 29.211 38.4431 28.2835C40.4805 26.4767 41.6483 23.7468 44.0894 15.1852C46.0211 8.426 46.0211 8.32976 47.4435 8.32976C48.1115 8.32976 50 8.43475 50 8.43475V0H45.6656H41.3455ZM24.2287 14.4589C22.8256 14.4502 19.8078 16.397 10.7737 23.1124C10.3844 23.9568 10.3508 24.5386 10.5286 24.9149C10.6439 25.173 10.8554 25.3524 11.1485 25.4836C11.4368 25.6149 11.8116 25.6936 12.2249 25.7242C13.0466 25.7899 14.0173 25.6717 14.8006 25.5317L15.3292 25.4224C15.5101 25.2015 15.7477 25.0242 16.0211 24.9061C16.5786 24.6261 18.9188 22.6837 21.259 20.6013C25.3772 16.8039 26.3431 15.0889 24.666 14.5333C24.5284 14.4835 24.3768 14.4582 24.2287 14.4589ZM34.7814 17.097C33.5464 17.1276 31.3215 18.4313 27.5108 21.2006C25.5983 22.6137 24.3873 23.3749 23.7386 23.5324L21.2206 25.3436C20.2739 26.9186 20.1346 27.8942 20.3844 28.4323C20.447 28.565 20.5378 28.6852 20.6516 28.7858C20.7654 28.8864 20.9 28.9655 21.0476 29.0185C21.4147 29.1505 21.8062 29.2173 22.2009 29.2154C23.1441 29.2062 24.0816 29.0811 24.988 28.8435C25.4604 28.7281 25.9269 28.5938 26.3864 28.441L26.5257 28.3885L26.7804 28.266C27.2609 27.7017 28.3662 26.6386 29.7501 25.4136C34.123 21.5725 36.3575 18.8426 35.901 17.8232C35.6944 17.3289 35.3388 17.0795 34.7814 17.097ZM23.1331 21.8219C22.7775 21.8569 21.9798 22.4168 20.543 23.5631C18.4671 25.2343 16.2038 26.1967 15.4205 25.768C15.2384 25.8054 15.0558 25.8404 14.8727 25.873C14.075 26.0174 13.0803 26.1355 12.1913 26.0699C11.7724 26.0468 11.3618 25.9533 10.9803 25.7942C10.6204 25.6444 10.3333 25.3799 10.173 25.0505C9.9952 24.6568 9.9952 24.1668 10.197 23.5412L7.07352 25.8774L0.00480641 31.2016V39.8332L23.1667 23.2218C23.1623 23.0399 23.1882 22.8585 23.2436 22.6837C23.4214 22.0975 23.4118 21.8 23.1331 21.8262V21.8219ZM33.0995 24.6174C32.7487 24.6174 32.1624 25.068 31.2254 25.9736C29.9519 27.2117 27.9481 28.4104 26.8861 28.6554L26.7227 28.7342C26.5484 28.7997 26.3721 28.861 26.1941 28.9179C25.9058 29.0054 25.531 29.1104 25.0985 29.2154C24.2335 29.4298 23.1571 29.6266 22.1961 29.6048C21.743 29.6042 21.2943 29.524 20.8746 29.3685C20.479 29.2201 20.1621 28.9378 19.9904 28.581C19.7117 27.9729 19.8222 27.1198 20.4325 25.908L0 40.5594V45.8312H8.97645L28.0154 32.2166C28.5103 31.7178 29.2552 31.0353 30.2595 30.1822C32.9505 27.9117 33.5608 27.1286 33.5608 25.9692C33.5608 25.068 33.4503 24.613 33.0995 24.613V24.6174ZM37.6309 33.1484L36.0019 34.6271C35.0889 35.4146 33.4599 36.3858 32.345 36.8014L32.124 36.8889L32.1096 36.9108L32.0615 36.9545C32.0183 36.9852 31.999 36.9895 31.9654 37.0027C31.5204 37.156 31.0682 37.2918 30.6103 37.4095C29.5921 37.6793 28.5448 37.848 27.4868 37.9126C26.9865 37.9418 26.4843 37.902 25.9971 37.7945C25.5743 37.7098 25.2011 37.4853 24.9495 37.1645C24.7189 36.8408 24.6516 36.4077 24.7814 35.8739C24.8846 35.494 25.0378 35.1267 25.2379 34.7802L9.87506 45.8312H30.3075L32.7487 43.285C36.1028 39.7238 37.6309 37.1777 37.6309 34.999V33.1484Z" fill="#00C4F0"/>
    </g>
    <g id = "typeScript">
        <path d="M0 22.4573V44.9145H50V0H0V22.4573ZM40.2937 20.6682C41.5646 20.9526 42.5312 21.4598 43.4208 22.287C43.8812 22.7286 44.5646 23.5333 44.6187 23.728C44.6354 23.7841 42.4604 25.0941 41.1437 25.8296C41.0958 25.8577 40.9042 25.6724 40.6917 25.3879C40.0458 24.5458 39.3729 24.1827 38.3417 24.1191C36.825 24.0255 35.85 24.7386 35.8583 25.9288C35.8445 26.2215 35.9179 26.5122 36.0708 26.7709C36.4042 27.3904 37.025 27.7628 38.9667 28.517C42.5479 29.9019 44.0792 30.8132 45.0312 32.1101C46.0937 33.5568 46.3333 35.868 45.6104 37.586C44.8187 39.4537 42.85 40.7225 40.0792 41.1417C39.2229 41.2783 37.1917 41.2577 36.2708 41.108C34.2625 40.7861 32.3583 39.8953 31.1833 38.7257C30.7229 38.2709 29.825 37.0788 29.8813 36.9946C29.9042 36.9647 30.1104 36.8505 30.3396 36.7307C30.5646 36.6166 31.4042 36.1805 32.1979 35.7669L33.6354 35.0184L33.9375 35.4189C34.3583 35.9953 35.2771 36.7869 35.8333 37.0507C37.4292 37.8068 39.6187 37.7001 40.6979 36.8299C40.9149 36.6657 41.0867 36.4586 41.1998 36.2249C41.313 35.9911 41.3644 35.737 41.35 35.4825C41.35 34.9622 41.2771 34.7339 40.975 34.3409C40.5875 33.8431 39.7937 33.4239 37.5396 32.5443C34.9604 31.5468 33.85 30.9274 32.8333 29.943C32.1988 29.2934 31.7302 28.5269 31.4604 27.6973C31.2708 27.0629 31.2229 25.4722 31.3729 24.8321C31.9042 22.592 33.7854 21.0331 36.5 20.569C37.3812 20.4193 39.4292 20.4754 40.2937 20.6682ZM28.5562 22.5434L28.5729 24.383H22.0625V40.9939H17.4583V24.383H10.9542V22.5789C10.9542 21.5796 10.9771 20.7449 11.0083 20.7262C11.0333 20.6962 14.9938 20.6813 19.7938 20.6888L28.5333 20.7112L28.5562 22.5434Z" fill="#00C4F0"/>
    </g>
    <g id="logo">
        <path d="M18 40L2.41669 22L29.5 27" stroke="#00C1EC" stroke-width="4" stroke-linecap="round" stroke-linejoin="round"/>
        <path d="M44.9768 40L56.5833 22L29.5 27" stroke="#00C1EC" stroke-width="4" stroke-linecap="round" stroke-linejoin="round"/>
        <path d="M18 40L44 40L31.4363 40L18 40Z" stroke="#00C1EC" stroke-width="4" stroke-linecap="round" stroke-linejoin="round"/>
        <path d="M13.25 24L29.5 2L45.75 24" stroke="#00C1EC" stroke-width="4" stroke-linejoin="round"/>
    </g>
    <g id="pluto">
        <path d="M2.48047 12.4941C2.41016 13.1973 2.02344 13.5781 1.32031 13.6367C0.992188 13.6367 0.705078 13.5254 0.458984 13.3027C0.224609 13.0918 0.107422 12.8223 0.107422 12.4941V4.12695C0.119141 3.79883 0.242188 3.5293 0.476562 3.31836C0.710938 3.0957 0.992188 2.98438 1.32031 2.98438H8.70312C9.73438 3.01953 10.5137 3.26562 11.041 3.72266C11.5684 4.16797 11.9492 4.67773 12.1836 5.25195C12.418 5.81445 12.5352 6.38867 12.5352 6.97461C12.5352 7.58398 12.418 8.17578 12.1836 8.75C11.9609 9.3125 11.5801 9.82227 11.041 10.2793C10.5137 10.7246 9.83984 10.9531 9.01953 10.9648H4.58984C4.26172 10.9648 3.98633 10.8477 3.76367 10.6133C3.5293 10.3906 3.41211 10.1152 3.41211 9.78711C3.41211 9.45898 3.52344 9.18359 3.74609 8.96094C3.98047 8.72656 4.26172 8.60938 4.58984 8.60938H9.08984C9.3125 8.60938 9.50586 8.52148 9.66992 8.3457C9.83398 8.1582 9.95117 7.94727 10.0215 7.71289C10.1035 7.4668 10.1445 7.22656 10.1445 6.99219C10.1445 6.74609 10.1035 6.50586 10.0215 6.27148C9.95117 6.02539 9.83398 5.81445 9.66992 5.63867C9.50586 5.45117 9.3125 5.35156 9.08984 5.33984H2.9375C2.63281 5.35156 2.48047 5.50391 2.48047 5.79688V12.4941ZM15.8926 0.3125C16.209 0.324219 16.4785 0.441406 16.7012 0.664062C16.9238 0.875 17.041 1.13867 17.0527 1.45508V10.0684C16.9824 10.7715 16.5957 11.1523 15.8926 11.2109C15.5645 11.2109 15.2773 11.1055 15.0312 10.8945C14.7969 10.6719 14.6797 10.3965 14.6797 10.0684V1.45508C14.6914 1.12695 14.8145 0.857422 15.0488 0.646484C15.2832 0.423828 15.5645 0.3125 15.8926 0.3125ZM24.8926 11.2637C24.2832 11.2637 23.6797 11.1934 23.082 11.0527C22.4961 10.9121 21.9336 10.707 21.3945 10.4375C20.8555 10.1562 20.3809 9.78711 19.9707 9.33008C19.5605 8.87305 19.3379 8.32812 19.3027 7.69531V6.95703V3.95117C19.3027 3.62305 19.4199 3.35352 19.6543 3.14258C19.9004 2.91992 20.1875 2.80859 20.5156 2.80859C21.2188 2.86719 21.5996 3.24805 21.6582 3.95117V4.72461V7.15039C21.6816 7.51367 21.8164 7.81836 22.0625 8.06445C22.3203 8.29883 22.6016 8.48633 22.9062 8.62695C23.2227 8.76758 23.5449 8.87305 23.873 8.94336C24.2129 9.01367 24.5527 9.04883 24.8926 9.04883C25.2324 9.04883 25.5664 9.01367 25.8945 8.94336C26.2344 8.87305 26.5566 8.76758 26.8613 8.62695C27.1777 8.48633 27.459 8.29883 27.7051 8.06445C27.9629 7.81836 28.1035 7.51367 28.127 7.15039V4.72461V3.95117C28.127 3.62305 28.2441 3.35352 28.4785 3.14258C28.7246 2.91992 29.0117 2.80859 29.3398 2.80859C30.043 2.86719 30.4297 3.24805 30.5 3.95117V6.95703V7.69531C30.4648 8.32812 30.2363 8.87305 29.8145 9.33008C29.4043 9.78711 28.9297 10.1562 28.3906 10.4375C27.8516 10.707 27.2832 10.9121 26.6855 11.0527C26.0996 11.1934 25.502 11.2637 24.8926 11.2637ZM36.5645 0.3125C36.8926 0.3125 37.1738 0.423828 37.4082 0.646484C37.6426 0.857422 37.7656 1.12695 37.7773 1.45508V2.98438H43.7539C44.082 2.98438 44.3633 3.0957 44.5977 3.31836C44.8203 3.55273 44.9316 3.83398 44.9316 4.16211C44.9316 4.49023 44.8145 4.77148 44.5801 5.00586C44.3574 5.22852 44.082 5.33984 43.7539 5.33984H37.7773V5.69141C37.7656 6.17188 37.7949 6.61719 37.8652 7.02734C37.9473 7.42578 38.1348 7.7832 38.4277 8.09961C38.7207 8.41602 39.0898 8.58594 39.5352 8.60938H43.8242C44.1523 8.62109 44.4219 8.74414 44.6328 8.97852C44.8555 9.21289 44.9668 9.49414 44.9668 9.82227C44.9551 10.1387 44.8379 10.4082 44.6152 10.6309C44.4043 10.8418 44.1406 10.9531 43.8242 10.9648H38.9375C38.1172 10.918 37.4375 10.6426 36.8984 10.1387C36.3711 9.62305 35.9902 8.99609 35.7559 8.25781C35.5332 7.51953 35.416 6.73438 35.4043 5.90234V5.33984H33.3828C33.0547 5.33984 32.7793 5.22266 32.5566 4.98828C32.3223 4.76562 32.2051 4.49023 32.2051 4.16211C32.2051 3.83398 32.3164 3.55859 32.5391 3.33594C32.7734 3.10156 33.0547 2.98438 33.3828 2.98438H35.4043V1.45508C35.416 1.13867 35.5332 0.875 35.7559 0.664062C35.9785 0.441406 36.248 0.324219 36.5645 0.3125ZM50.293 10.9648C49.2617 10.9297 48.4824 10.6895 47.9551 10.2441C47.4277 9.78711 47.0469 9.27734 46.8125 8.71484C46.5781 8.14062 46.4609 7.56055 46.4609 6.97461C46.4609 6.36523 46.5723 5.7793 46.7949 5.2168C47.0293 4.64258 47.4102 4.13281 47.9375 3.6875C48.4766 3.23047 49.1562 2.99609 49.9766 2.98438H55.6719C56.4922 2.99609 57.166 3.23047 57.6934 3.6875C58.2324 4.13281 58.6133 4.64258 58.8359 5.2168C59.0703 5.7793 59.1875 6.36523 59.1875 6.97461C59.1875 7.56055 59.0703 8.14062 58.8359 8.71484C58.6016 9.27734 58.2207 9.78711 57.6934 10.2441C57.166 10.6895 56.3867 10.9297 55.3555 10.9648H50.293ZM49.9062 5.33984C49.6836 5.33984 49.4902 5.43359 49.3262 5.62109C49.1621 5.79688 49.0391 6.00781 48.957 6.25391C48.8867 6.48828 48.8516 6.72266 48.8516 6.95703C48.8516 7.20312 48.8867 7.44922 48.957 7.69531C49.0391 7.92969 49.1621 8.14062 49.3262 8.32812C49.4902 8.50391 49.6836 8.59766 49.9062 8.60938H55.7422C55.9648 8.59766 56.1582 8.50391 56.3223 8.32812C56.4863 8.14062 56.6035 7.92969 56.6738 7.69531C56.7559 7.44922 56.7969 7.20312 56.7969 6.95703C56.7969 6.72266 56.7559 6.48828 56.6738 6.25391C56.6035 6.00781 56.4863 5.79688 56.3223 5.62109C56.1582 5.43359 55.9648 5.33984 55.7422 5.33984H49.9062Z" fill="white"/>
    </g>
    <!-- Arrows -->
    <g id = "arrowLeft">
        <path d="M16.5 7.5L6 18L16.5 28.5" stroke="#E4E4E4" stroke-width="2" stroke-linecap="round" stroke-linejoin="round"/>
        <path d="M6 18H30" stroke="#E4E4E4" stroke-width="2" stroke-linecap="round" stroke-linejoin="round"/>
    </g>
    <g id = "arrowRight">
        <path d="M14.5 1.5L25 12L14.5 22.5" stroke="#E4E4E4" stroke-width="2" stroke-linecap="round" stroke-linejoin="round"/>
        <path d="M25 12H1" stroke="#E4E4E4" stroke-width="2" stroke-linecap="round" stroke-linejoin="round"/>
    </g>
    <g  id = "arrowTop">
        <path d="M22.5 11.5L12 1L1.5 11.5" stroke="#E4E4E4" stroke-width="2" stroke-linecap="round" stroke-linejoin="round"/>
        <path d="M12 1L12 25" stroke="#E4E4E4" stroke-width="2" stroke-linecap="round" stroke-linejoin="round"/>
    </g>
</svg>
